<svg width="20" height="20" viewBox="0 0 20 20" fill="none" xmlns="http://www.w3.org/2000/svg">
<g clip-path="url(#clip0_703_893)">
<path d="M16.9419 3.52501C15.6472 2.9164 14.263 2.47408 12.8158 2.22223C12.638 2.5451 12.4303 2.97937 12.2872 3.32482C10.7487 3.09236 9.22446 3.09236 7.7143 3.32482C7.57116 2.97937 7.3588 2.5451 7.17947 2.22223C5.73068 2.47408 4.3448 2.91802 3.05016 3.52823C0.438869 7.493 -0.269009 11.3593 0.0849304 15.1707C1.81688 16.4702 3.49534 17.2596 5.14548 17.7762C5.55291 17.2128 5.91628 16.6139 6.22931 15.9827C5.63312 15.755 5.06211 15.4741 4.52257 15.1481C4.6657 15.0416 4.80571 14.9301 4.94099 14.8156C8.23183 16.362 11.8074 16.362 15.059 14.8156C15.1958 14.9301 15.3358 15.0416 15.4773 15.1481C14.9362 15.4758 14.3637 15.7567 13.7674 15.9843C14.0806 16.6139 14.4423 17.2144 14.8513 17.7778C16.503 17.2612 18.183 16.4718 19.915 15.1707C20.3303 10.7523 19.2056 6.92152 16.9419 3.52501ZM6.67764 12.8267C5.68977 12.8267 4.87962 11.9001 4.87962 10.7717C4.87962 9.64325 5.67247 8.71503 6.67764 8.71503C7.68286 8.71503 8.49297 9.64163 8.47567 10.7717C8.47723 11.9001 7.68286 12.8267 6.67764 12.8267ZM13.3223 12.8267C12.3344 12.8267 11.5242 11.9001 11.5242 10.7717C11.5242 9.64325 12.3171 8.71503 13.3223 8.71503C14.3274 8.71503 15.1376 9.64163 15.1203 10.7717C15.1203 11.9001 14.3274 12.8267 13.3223 12.8267Z" fill="#D3FF81"/>
</g>
<defs>
<clipPath id="clip0_703_893">
<rect width="20" height="20" fill="white"/>
</clipPath>
</defs>
</svg>
