<svg width="151" height="28" viewBox="0 0 151 28" fill="none" xmlns="http://www.w3.org/2000/svg">
<path d="M13.4222 18.6667V0V18.9412M13.4222 23.8824V28M0 18.9412H26.8444M2.51667 8.23529L20.1333 26.3529M6.71111 26.3529L24.3278 8.23529" stroke="#D3FF81" stroke-width="2.5" stroke-miterlimit="10"/>
<path d="M47.4477 12.3365V11.0682C47.4477 8.76234 45.5686 6.91763 43.2197 6.91763H41.3405C39.0151 6.91763 37.1125 8.76234 37.1125 11.0682V18.8852C37.1125 21.168 39.0151 23.0588 41.3405 23.0588H43.2197C45.5686 23.0588 47.4477 21.168 47.4477 18.8852V14.3656H41.5754V16.6715H45.0988V18.8852C45.0988 19.8998 44.2532 20.7299 43.2197 20.7299H41.3405C40.307 20.7299 39.4614 19.8998 39.4614 18.8852V11.0682C39.4614 10.0536 40.2835 9.22352 41.3405 9.22352H43.2197C44.2767 9.22352 45.0988 10.0306 45.0988 11.0682V12.3365H47.4477Z" fill="#D3FF81"/>
<path d="M61.2969 12.4518V11.0682C61.2969 8.76234 59.4178 6.91763 57.0689 6.91763H50.9618V23.0588H53.3107V16.6023H55.7301L58.7132 23.0588H61.2969L58.2199 16.4409C60.005 15.9567 61.2969 14.3656 61.2969 12.4518ZM58.948 12.4518C58.948 13.4894 58.1259 14.2965 57.0689 14.2965H53.3107V9.22352H57.0689C58.1259 9.22352 58.948 10.0306 58.948 11.0682V12.4518Z" fill="#D3FF81"/>
<path d="M70.9182 23.0588C73.2671 23.0588 75.1462 21.168 75.1462 18.8852V11.0682C75.1462 8.76234 73.2671 6.91763 70.9182 6.91763H69.0391C66.7137 6.91763 64.8111 8.76234 64.8111 11.0682V18.8852C64.8111 21.168 66.7137 23.0588 69.0391 23.0588H70.9182ZM70.9182 20.7299H69.0391C68.0056 20.7299 67.16 19.8998 67.16 18.8852V11.0682C67.16 10.0536 67.9821 9.22352 69.0391 9.22352H70.9182C71.9752 9.22352 72.7973 10.0306 72.7973 11.0682V18.8852C72.7973 19.8998 71.9517 20.7299 70.9182 20.7299Z" fill="#D3FF81"/>
<path d="M84.7675 23.0588C87.1164 23.0588 88.9955 21.168 88.9955 18.8852V11.0682C88.9955 8.76234 87.1164 6.91763 84.7675 6.91763H82.8884C80.563 6.91763 78.6604 8.76234 78.6604 11.0682V18.8852C78.6604 21.168 80.563 23.0588 82.8884 23.0588H84.7675ZM84.7675 20.7299H82.8884C81.8549 20.7299 81.0093 19.8998 81.0093 18.8852V11.0682C81.0093 10.0536 81.8314 9.22352 82.8884 9.22352H84.7675C85.8245 9.22352 86.6466 10.0306 86.6466 11.0682V18.8852C86.6466 19.8998 85.801 20.7299 84.7675 20.7299Z" fill="#D3FF81"/>
<path d="M100.496 6.91763V11.5294L99.9321 18.3318L98.6402 11.0682H96.7141L95.4223 18.3318L94.8585 11.5294V6.91763H92.5096V12.2212L93.919 23.0588H95.7981L97.6772 16.1642L99.5563 23.0588H101.435L102.845 12.2212V6.91763H100.496Z" fill="#D3FF81"/>
<path d="M116.694 9.22352V6.91763H106.359V23.0588H116.694V20.7529H108.708V15.7492H115.754V13.4433H108.708V9.22352H116.694Z" fill="#D3FF81"/>
<path d="M130.543 12.4518V11.0682C130.543 8.76234 128.664 6.91763 126.315 6.91763H120.208V23.0588H122.557V16.6023H124.976L127.96 23.0588H130.543L127.466 16.4409C129.251 15.9567 130.543 14.3656 130.543 12.4518ZM128.194 12.4518C128.194 13.4894 127.372 14.2965 126.315 14.2965H122.557V9.22352H126.315C127.372 9.22352 128.194 10.0306 128.194 11.0682V12.4518Z" fill="#D3FF81"/>
<path d="M134.057 17.8475V18.7699C134.057 21.1449 136.007 23.0588 138.426 23.0588H140C142.49 23.0588 144.393 21.3063 144.393 19.0005C144.393 14.135 136.641 13.1896 136.641 10.7454C136.641 9.79999 137.393 9.22352 138.661 9.22352H139.765C140.893 9.22352 141.809 10.0998 141.809 11.2066V11.8983H144.158V11.2066C144.158 8.83152 142.185 6.91763 139.765 6.91763H138.661C136.101 6.91763 134.292 8.48563 134.292 10.7454C134.292 15.1266 142.044 15.8183 142.044 19.0005C142.044 20.015 141.198 20.7529 140 20.7529H138.426C137.322 20.7529 136.406 19.8536 136.406 18.7699V17.8475H134.057Z" fill="#D3FF81"/>
</svg>
