<svg width="20" height="20" viewBox="0 0 20 20" fill="none" xmlns="http://www.w3.org/2000/svg">
<path fill-rule="evenodd" clip-rule="evenodd" d="M19.8335 12.8198V11.8217C19.8335 11.7294 19.7418 11.6625 19.6517 11.688L14.8036 13.0506C14.7775 13.057 14.7545 13.0713 14.7365 13.0904C14.2172 13.6481 13.7758 14.0224 13.659 14.1215L13.651 14.1283C13.3497 14.3766 12.9764 14.5119 12.5835 14.5119H10.8283V12.772H12.2233C12.2593 12.772 12.2937 12.7593 12.3199 12.737L12.5 12.5762C12.5769 12.5078 12.6686 12.425 12.7783 12.3183C12.7875 12.3094 12.7969 12.3003 12.8064 12.2911C12.8641 12.2352 12.9258 12.1755 12.9862 12.1098C13.0583 12.0414 13.1287 11.965 13.1942 11.8902C13.3039 11.7755 13.4087 11.6561 13.5184 11.5304C13.5969 11.4476 13.669 11.3537 13.7394 11.2598C13.818 11.1706 13.895 11.0704 13.967 10.9749C13.9937 10.9368 14.0221 10.8982 14.0511 10.8589C14.079 10.821 14.1075 10.7823 14.1356 10.7424C14.188 10.666 14.2404 10.5848 14.2846 10.5084C14.4222 10.3015 14.5384 10.0802 14.6367 9.85898C14.6817 9.76437 14.7177 9.66477 14.7527 9.56793C14.7571 9.55559 14.7616 9.5433 14.766 9.53107C14.8053 9.41804 14.838 9.31141 14.8626 9.19837C14.9215 8.93254 14.9346 8.66829 14.9084 8.40407C14.9019 8.3213 14.8953 8.24011 14.8757 8.16368V8.15097C14.8692 8.09685 14.8561 8.03635 14.838 7.98064C14.7791 7.72276 14.6874 7.46488 14.5712 7.21178C14.5319 7.11786 14.486 7.02235 14.4418 6.93479C14.337 6.74539 14.2273 6.55596 14.1029 6.37289C14.0779 6.33418 14.0503 6.29497 14.0227 6.25582C14.0015 6.22574 13.9804 6.1957 13.9604 6.16597C13.8816 6.04768 13.7929 5.93366 13.7069 5.82303C13.6875 5.79816 13.6683 5.77345 13.6494 5.74891C13.5986 5.68409 13.543 5.61927 13.487 5.55402C13.4564 5.51831 13.4257 5.48248 13.3956 5.44644C13.3105 5.34615 13.2269 5.25064 13.1418 5.15675C12.8372 4.82246 12.518 4.51999 12.2331 4.26215C12.1807 4.21119 12.1234 4.16027 12.0644 4.11089C11.8434 3.91512 11.642 3.7448 11.4734 3.61265C11.4226 3.57466 11.377 3.53723 11.3346 3.5024C11.306 3.47886 11.2788 3.45651 11.2523 3.43596C11.2004 3.39836 11.1554 3.36504 11.1178 3.33718C11.095 3.32025 11.0748 3.30533 11.0575 3.29269C11.0444 3.28316 11.0297 3.27679 11.0149 3.272L10.8283 3.22108V1.71841C10.8283 1.47326 10.7268 1.2536 10.5647 1.09281C10.4026 0.93202 10.1766 0.833344 9.92778 0.833344C9.43004 0.833344 9.02724 1.2297 9.02724 1.71841V2.73079L8.93392 2.70531L8.68015 2.63528L8.44928 2.57321C8.44928 2.57321 8.44599 2.57162 8.44273 2.57162H8.43781L6.68588 2.10998C6.60896 2.08929 6.54345 2.17048 6.58276 2.23892L6.86274 2.74195C6.87865 2.78066 6.89883 2.81938 6.91956 2.85917C6.93292 2.88481 6.94651 2.9109 6.95935 2.93772C7.00517 3.02689 7.05103 3.12078 7.09523 3.21471C7.1345 3.29748 7.17381 3.37867 7.21968 3.46781C7.23898 3.5098 7.25867 3.55231 7.27864 3.59543C7.35176 3.75333 7.42866 3.91936 7.50455 4.09819L7.50518 4.09965C7.57045 4.25038 7.63573 4.40113 7.69284 4.55821C7.85001 4.95457 7.99903 5.378 8.12836 5.81257C8.16053 5.90971 8.18624 6.00373 8.21229 6.09901C8.22337 6.13956 8.23452 6.18033 8.24626 6.22167L8.26425 6.29807C8.31666 6.50025 8.36248 6.7008 8.39524 6.90298C8.42145 7.04146 8.44599 7.17357 8.45909 7.30729L8.4591 7.30733C8.47875 7.45853 8.4984 7.60974 8.50495 7.76095C8.51806 7.89946 8.52461 8.04431 8.52461 8.18279C8.52461 8.53618 8.49185 8.87683 8.4149 9.19837C8.4101 9.21557 8.4053 9.23297 8.40047 9.25052C8.37888 9.32886 8.35649 9.41008 8.32976 9.4881C8.30549 9.57182 8.27405 9.65555 8.2414 9.74251C8.22998 9.77293 8.21841 9.80374 8.20695 9.83509C8.20506 9.84002 8.20318 9.84496 8.20129 9.8499C8.17697 9.91364 8.15221 9.97853 8.12181 10.0421C7.95972 10.4209 7.75832 10.7982 7.55041 11.1515C7.24585 11.6752 6.93969 12.1353 6.72519 12.4314C6.71214 12.4504 6.69941 12.4685 6.68714 12.4859C6.67171 12.5079 6.65702 12.5288 6.64335 12.5492C6.5762 12.6415 6.64498 12.772 6.76121 12.772H9.02724V14.5119H6.73503C6.1194 14.5119 5.54962 14.1728 5.27453 13.63C5.13209 13.3578 5.07642 13.0586 5.10918 12.7657C5.11736 12.6781 5.05022 12.5953 4.95853 12.5953H0.328261C0.249642 12.5953 0.185791 12.6574 0.185791 12.7338V12.8261C0.185791 15.6978 2.57135 18.025 5.51524 18.025H13.8213C15.3782 18.025 16.2623 16.6456 17.1313 15.2898C17.3735 14.9119 17.6146 14.5358 17.8687 14.1919C18.3255 13.5743 19.4241 13.084 19.7451 12.9503C19.7974 12.928 19.8335 12.8771 19.8335 12.8198ZM0.818931 10.3663L0.743077 10.4627C0.676285 10.5461 0.750303 10.6572 0.8767 10.6572H5.57916C5.63154 10.6572 5.68028 10.6367 5.70919 10.6016C5.77059 10.5256 5.82836 10.4467 5.88074 10.3663C6.28707 9.81369 6.64822 9.21578 6.78004 8.77432C7.08885 7.70133 6.42972 5.97783 5.66583 4.59198C5.61529 4.4999 5.45815 4.49111 5.39136 4.57591L0.818931 10.3663Z" fill="#D3FF81"/>
</svg>
