<svg width="20" height="20" viewBox="0 0 20 20" fill="none" xmlns="http://www.w3.org/2000/svg">
<path d="M19.4351 3.53792C18.892 4.39564 18.2133 5.1104 17.5345 5.68221C17.5345 5.82516 17.5345 5.96811 17.5345 6.25402C17.5345 7.39764 17.3988 8.54125 17.1273 9.54191C16.8558 10.6855 16.3128 11.6862 15.7698 12.6869C15.0911 13.6875 14.4123 14.5453 13.5978 15.403C12.6476 16.2607 11.5616 16.8324 10.4756 17.2613C9.25386 17.6902 7.89637 17.9761 6.53887 17.9761C4.36689 17.9761 2.33065 17.2613 0.565918 16.1178C0.837416 16.1178 1.10892 16.1178 1.51616 16.1178C3.28091 16.1178 5.04564 15.5459 6.40312 14.4023C5.58863 14.4023 4.77414 14.1164 4.09538 13.5446C3.41664 12.9728 3.0094 12.401 2.7379 11.5433C3.0094 11.5433 3.28089 11.5433 3.41664 11.5433C3.82389 11.5433 4.0954 11.5433 4.50264 11.4003C3.68815 11.2573 2.87365 10.6855 2.33065 9.97077C1.51616 9.25601 1.24466 8.3983 1.24466 7.39763C1.78766 7.68354 2.4664 7.82649 3.0094 7.96944C2.4664 7.54059 2.05916 7.11173 1.65191 6.53992C1.38041 5.96811 1.10891 5.25335 1.10891 4.53859C1.10891 3.82383 1.24466 3.10906 1.65191 2.53726C2.60215 3.82383 3.8239 4.8245 5.18139 5.53925C6.53887 6.25402 8.03212 6.68287 9.6611 6.82583C9.6611 6.53992 9.52536 6.25402 9.52536 5.82516C9.52536 4.96745 9.79685 4.25268 10.2041 3.53792C10.6113 2.82317 11.2901 2.39431 11.9688 1.96545C12.6476 1.67955 13.462 1.53659 14.2766 1.8225C15.091 1.96545 15.7698 2.39431 16.3128 2.96612C17.1273 2.82317 18.0776 2.53726 18.7563 1.96545C18.4848 2.96612 17.8061 3.68088 16.9916 4.25268C17.9418 4.10974 18.7563 3.96679 19.4351 3.53792Z" fill="#D3FF81"/>
</svg>
